# AST/ASF file generated using VICON BodyLanguage
# -----------------------------------------------
:version 1.10
:name VICON
:units
  mass 1.0
  length 0.45
  angle deg
:documentation
   .ast/.asf automatically generated from VICON data using
   VICON BodyBuilder and BodyLanguage model FoxedUp or BRILLIANT.MOD
:root
   order TX TY TZ RX RY RZ
   axis XYZ
   position 0 0 0  
   orientation 0 0 0 
:bonedata
  begin
     id 1 
     name lhipjoint
     direction 0.682418 -0.694059 0.22932 
     length 2.25561 
     axis 0 0 0  XYZ
  end
  begin
     id 2 
     name lfemur
     direction 0.34202 -0.939693 0  
     length 6.96448  
     axis 0 0 20  XYZ
    dof rx ry rz
    limits (-160.0 20.0)
           (-70.0 70.0)
           (-60.0 70.0)
  end
  begin
     id 3 
     name ltibia
     direction 0.34202 -0.939693 0   
     length 6.88553   
     axis 0 0 20   XYZ
    dof rx
    limits (-10.0 170.0)
  end
  begin
     id 4 
     name lfoot
     direction 0.0723587 -0.198804 0.977364   
     length 1.88518   
     axis -90 7.62852e-016 20   XYZ
    dof rx rz
    limits (-45.0 90.0)
           (-70.0 20.0)
  end
  begin
     id 5 
     name ltoes
     direction 1.53558e-011 -4.21962e-011 1   
     length 0.952124   
     axis -90 7.62852e-016 20   XYZ
    dof rx
    limits (-90.0 20.0)
  end
  begin
     id 6 
     name rhipjoint
     direction -0.657603 -0.71533 0.236348   
     length 2.18854  
     axis 0 0 0  XYZ 
  end
  begin
     id 7 
     name rfemur
     direction -0.34202 -0.939693 0   
     length 6.86686   
     axis 0 0 -20   XYZ
    dof rx ry rz
    limits (-160.0 20.0)
           (-70.0 70.0)
           (-70.0 60.0)
  end
  begin
     id 8 
     name rtibia
     direction -0.34202 -0.939693 0   
     length 6.59503   
     axis 0 0 -20   XYZ
    dof rx
    limits (-10.0 170.0)
 end
 begin
     id 9 
     name rfoot
     direction -0.101977 -0.280179 0.954516   
     length 1.93723  
     axis -90 -7.62852e-016 -20   XYZ
    dof rx rz
    limits (-45.0 90.0)
           (-20.0 70.0)
  end
  begin
     id 10 
     name rtoes
     direction -1.53564e-011 -4.21897e-011 1   
     length 0.970315   
     axis -90 -7.62852e-016 -20   XYZ
    dof rx
    limits (-90.0 20.0)
  end
  begin
     id 11 
     name lowerback
     direction -0.0339559 0.999421 -0.00235966   
     length 1.88543   
     axis 0 0 0   XYZ
    dof rx ry rz
    limits (-20.0 45.0)
           (-30.0 30.0)
           (-30.0 30.0)
  end
  begin
     id 12 
     name upperback
     direction 0.00401003 0.999739 0.0224689   
     length 1.8856   
     axis 0 0 0   XYZ
    dof rx ry rz
    limits (-20.0 45.0)
           (-30.0 30.0)
           (-30.0 30.0)
  end
  begin
     id 13 
     name thorax
     direction 0.0198619 0.999546 0.0226536   
     length 1.88352   
     axis 0 0 0   XYZ
    dof rx ry rz
    limits (-20.0 45.0)
           (-30.0 30.0)
           (-30.0 30.0)
  end
  begin
     id 14 
     name lowerneck
     direction -0.0461848 0.998632 0.0245198   
     length 1.34895   
     axis 0 0 0   XYZ
    dof rx ry rz
    limits (-20.0 45.0)
           (-30.0 30.0)
           (-30.0 30.0)
  end
  begin
     id 15 
     name upperneck
     direction -0.0180627 0.994724 -0.100984   
     length 1.35214   
     axis 0 0 0   XYZ
    dof rx ry rz
    limits (-20.0 45.0)
           (-30.0 30.0)
           (-30.0 30.0)
  end
  begin
     id 16
     name head
     direction -0.00374772 0.999293 -0.037403  
     length 1.3568  
     axis 0 0 0   XYZ
    dof rx ry rz
    limits (-20.0 45.0)
           (-30.0 30.0)
           (-30.0 30.0)
  end
  begin
     id 17 
     name lclavicle
     direction 0.971773 0.191119 0.138311  
     length 2.84954  
     axis 0 0 0   XYZ
    dof ry rz
    limits (-20.0 10.0)
           (0.0 20.0)
  end
  begin
     id 18 
     name lhumerus
     direction 1 -4.4897e-011 -2.43761e-027   
     length 4.40919   
     axis 180 -30 -90   XYZ
    dof rx ry rz
    limits (-60.0 90.0)
           (-90.0 90.0)
           (-90.0 90.0)
  end
  begin
     id 19
     name lradius
     direction 1 -4.4896e-011 -9.1621e-027   
     length 3.03857   
     axis 180 -30 -90   XYZ
    dof rx
    limits (-10.0 170.0)
  end
  begin
     id 20
     name lwrist
     direction 1 -4.4896e-011 -1.41363e-026   
     length 1.51928   
     axis 1.07133e-014 90 90   XYZ
    dof ry
    limits (-180.0 0.0)
 end
  begin
     id 21 
     name lhand
     direction 1 -4.48978e-011 -2.82725e-026   
     length 0.523208   
     axis 1.80403e-014 90 90   XYZ
    dof rx rz
    limits (-90.0 90.0)
           (-45.0 45.0)
  end
  begin
     id 22 
     name lfingers
     direction 1 -4.48977e-011 -5.6545e-026   
     length 0.421824   
     axis 3.60806e-014 90 90   XYZ
    dof rx
    limits (0.0 90.0)
  end
  begin
     id 23
     name lthumb
     direction 0.707107 -6.34962e-011 0.707107   
     length 0.605657   
     axis -90 45 2.85299e-015   XYZ
    dof rx rz
    limits (-45.0 45.0)
           (-45.0 45.0)
  end
  begin
     id 24 
     name rclavicle
     direction -0.957247 0.24311 0.156766   
     length 3.12406  
     axis 0 0 0   XYZ 
    dof ry rz
    limits (-10.0 20.0)
           (-20.0 0.0)
  end
  begin
     id 25 
     name rhumerus
     direction -1 -4.48964e-011 -1.70632e-027  
     length 4.61969   
     axis 180 30 90   XYZ
    dof rx ry rz
    limits (-90.0 60.0)
           (-90.0 90.0)
           (-90.0 90.0)
  end
  begin
     id 26 
     name rradius
     direction -1 -4.48966e-011 -6.60395e-027   
     length 3.09382   
     axis 180 30 90   XYZ
    dof rx
    limits (-10.0 170.0)
  end
  begin
     id 27 
     name rwrist
     direction -1 -4.48963e-011 -1.41363e-026   
     length 1.54691   
     axis 1.07133e-014 -90 -90   XYZ
    dof ry
    limits (-180.0 0.0)
  end
  begin
     id 28
     name rhand
     direction -1 -4.49013e-011 -2.82725e-026   
     length 0.500896   
     axis 1.80403e-014 -90 -90   XYZ
    dof rx rz
    limits (-90.0 90.0)
           (-45.0 45.0)
  end
  begin
     id 29
     name rfingers
     direction -1 -4.48902e-011 -5.6545e-026   
     length 0.403835   
     axis 3.60806e-014 -90 -90   XYZ
    dof rx
    limits (0.0 90.0)
  end
  begin
     id 30
     name rthumb
     direction -0.707107 -6.34953e-011 0.707107   
     length 0.579829   
     axis -90 -45 -2.85299e-015   XYZ
    dof rx rz
    limits (-45.0 45.0)
           (-45.0 45.0)
  end
:hierarchy
  begin
    root lhipjoint rhipjoint lowerback
    lhipjoint lfemur
    lfemur ltibia
    ltibia lfoot
    lfoot ltoes
    rhipjoint rfemur
    rfemur rtibia
    rtibia rfoot
    rfoot rtoes
    lowerback upperback
    upperback thorax
    thorax lowerneck lclavicle rclavicle
    lowerneck upperneck
    upperneck head
    lclavicle lhumerus
    lhumerus lradius
    lradius lwrist
    lwrist lhand lthumb
    lhand lfingers
    rclavicle rhumerus
    rhumerus rradius
    rradius rwrist
    rwrist rhand rthumb
    rhand rfingers
  end

#!OML:ASF E:\madness\Project 1\Capture day 1\Session 1\Female1.ASF
:FULLY-SPECIFIED
:DEGREES
348
root 2.41399 16.1871 -1.22694 4.10197 -60.6559 3.86829
lowerback -4.77521 -0.545653 -3.40619
upperback -5.02461 -0.702643 1.1094
thorax -2.4538 -0.263282 3.03755
lowerneck 7.40671 -14.7714 -5.27771
upperneck -0.664253 -20.1392 0.0713804
head -0.871278 -10.0524 1.33189
rclavicle 3.40419e-014 8.74653e-015
rhumerus -49.4091 -3.45075 -78.4929
rradius 37.8548
rwrist 3.02394
rhand -14.7625 -44.4617
rfingers 7.12502
rthumb 11.3938 -74.1322
lclavicle 3.40419e-014 8.74653e-015
lhumerus -62.7173 12.3676 78.2114
lradius 66.712
lwrist -4.6822
lhand -26.7997 -12.7739
lfingers 7.12502
lthumb -0.226652 17.2058
rfemur -5.60015 8.47875 22.1843
rtibia 18.3652
rfoot -25.9349 -30.4943
rtoes 20.4137
lfemur -20.9522 -24.0508 -11.7268
ltibia 24.7301
lfoot -12.8716 4.68125
ltoes 1.5021
349
root 2.41572 16.1892 -1.21731 4.04204 -61.1834 3.96534
lowerback -4.7437 -0.682094 -3.43076
upperback -5.07234 -0.885924 1.22345
thorax -2.50529 -0.351539 3.16532
lowerneck 7.88905 -14.7724 -5.42153
upperneck -1.25311 -20.191 0.0740456
head -1.12467 -10.0609 1.43255
rclavicle 2.0773e-014 -4.37326e-015
rhumerus -49.309 -3.01739 -78.6089
rradius 37.8017
rwrist 3.20671
rhand -14.7389 -44.4669
rfingers 7.12502
rthumb 11.4166 -74.136
lclavicle 2.0773e-014 -4.37326e-015
lhumerus -62.7233 12.7979 78.1512
lradius 66.4015
lwrist -4.80213
lhand -26.8208 -12.8479
lfingers 7.12502
lthumb -0.246996 17.1317
rfemur -5.71732 8.74203 22.0392
rtibia 18.415
rfoot -26.4692 -30.0931
rtoes 21.9339
lfemur -20.8186 -23.8609 -11.8385
ltibia 24.6861
lfoot -12.7935 4.97487
ltoes 1.13135
350
root 2.41237 16.1915 -1.20667 3.96976 -61.7692 4.13317
lowerback -4.90101 -0.700548 -3.5295
upperback -5.04527 -0.902323 1.29281
thorax -2.38646 -0.358826 3.29003
lowerneck 7.91495 -14.8007 -5.39649
upperneck -1.51547 -20.2331 0.0699905
head -1.21547 -10.0746 1.44771
rclavicle -1.79403e-014 6.36111e-015
rhumerus -49.0969 -2.90239 -78.5923
rradius 37.7154
rwrist 3.21731
rhand -14.8443 -44.1482
rfingers 7.12502
rthumb 11.3149 -73.823
lclavicle -1.79403e-014 6.36111e-015
lhumerus -62.4187 12.9045 78.2675
lradius 65.964
lwrist -4.90787
lhand -27.1581 -12.8224
lfingers 7.12502
lthumb -0.572768 17.1565
rfemur -5.85709 8.91192 21.8471
rtibia 18.4107
rfoot -26.0824 -29.8517
rtoes 21.2774
lfemur -20.7004 -23.6232 -11.98
ltibia 24.6785
lfoot -12.7387 5.41232
ltoes 0.105569
351
root 2.40923 16.1932 -1.19797 3.9354 -62.4017 4.15219
lowerback -4.91927 -0.700873 -3.59618
upperback -5.02719 -0.899144 1.40737
thorax -2.35591 -0.354437 3.44608
lowerneck 7.70123 -14.8273 -5.39707
upperneck -1.46161 -20.2626 -0.114363
head -1.18097 -10.0874 1.37285
rclavicle -1.57537e-014 -1.43125e-014
rhumerus -48.9406 -2.82664 -78.4978
rradius 37.6712
rwrist 3.1885
rhand -14.6802 -44.237
rfingers 7.12502
rthumb 11.4732 -73.9031
lclavicle -1.57537e-014 -1.43125e-014
lhumerus -62.3054 13.0063 78.3462
lradius 65.7339
lwrist -4.99184
lhand -27.1662 -13.2385
lfingers 7.12502
lthumb -0.580631 16.7404
rfemur -5.88001 8.99449 21.7535
rtibia 18.4097
rfoot -24.914 -29.7352
rtoes 18.6692
lfemur -20.4431 -23.3487 -12.0926
ltibia 24.6702
lfoot -12.8292 5.78898
ltoes -0.163052
352
root 2.40802 16.1963 -1.18643 3.79189 -62.9492 4.31853
lowerback -4.91972 -0.75652 -3.60888
upperback -5.06731 -0.974942 1.44414
thorax -2.39035 -0.390923 3.48955
lowerneck 7.74348 -14.9325 -5.37927
upperneck -1.54106 -20.4148 -0.341418
head -1.2354 -10.1557 1.31791
rclavicle -5.41688e-015 -3.97569e-015
rhumerus -48.9706 -2.89293 -78.4251
rradius 37.7527
rwrist 3.4977
rhand -14.2876 -44.8814
rfingers 7.12502
rthumb 11.8517 -74.526
lclavicle -5.41688e-015 -3.97569e-015
lhumerus -62.4132 13.1656 78.2711
lradius 65.6995
lwrist -5.19616
lhand -26.9953 -13.3009
lfingers 7.12502
lthumb -0.415542 16.6784
rfemur -5.89849 9.00777 21.58
rtibia 18.3927
rfoot -24.0975 -29.5315
rtoes 17.1561
lfemur -20.2353 -23.1877 -12.2668
ltibia 24.6644
lfoot -12.9475 6.08308
ltoes 0.346047
353
root 2.40864 16.1992 -1.17337 3.73291 -63.4018 4.42834
lowerback -4.97121 -0.839217 -3.52519
upperback -5.08914 -1.088 1.43057
thorax -2.37557 -0.451141 3.42428
lowerneck 8.14124 -15.1732 -5.0168
upperneck -2.12476 -20.7578 -0.745603
head -1.56393 -10.2981 1.24237
rclavicle -3.21534e-014 1.98785e-015
rhumerus -48.9532 -2.83517 -78.5462
rradius 37.7999
rwrist 3.73155
rhand -14.163 -45.0076
rfingers 7.12502
rthumb 11.9719 -74.6452
lclavicle -3.21534e-014 1.98785e-015
lhumerus -62.5828 13.2034 78.235
lradius 65.9576
lwrist -5.19598
lhand -26.9894 -12.9517
lfingers 7.12502
lthumb -0.409809 17.0276
rfemur -5.94729 9.04332 21.4328
rtibia 18.3379
rfoot -23.7632 -29.2703
rtoes 16.8828
lfemur -20.1292 -23.0626 -12.3807
ltibia 24.6556
lfoot -12.8488 6.39428
ltoes 0.666722
354
root 2.41082 16.2006 -1.16321 3.79264 -63.7973 4.34285
lowerback -4.97139 -0.926549 -3.44049
upperback -5.03979 -1.20506 1.49037
thorax -2.31406 -0.513224 3.43412
lowerneck 8.46583 -15.4265 -4.86767
upperneck -2.68759 -21.1259 -0.927076
head -1.83197 -10.4574 1.25015
rclavicle 5.71506e-015 -1.98785e-015
rhumerus -48.8011 -2.62486 -78.6797
rradius 37.8081
rwrist 3.6501
rhand -14.5445 -44.901
rfingers 7.12502
rthumb 11.6041 -74.5597
lclavicle 5.71506e-015 -1.98785e-015
lhumerus -62.674 13.2592 78.319
lradius 66.2496
lwrist -5.08954
lhand -27.0041 -12.9611
lfingers 7.12502
lthumb -0.424092 17.0182
rfemur -5.9418 9.12061 21.4069
rtibia 18.2714
rfoot -23.5714 -29.0224
rtoes 16.6479
lfemur -19.9813 -22.8778 -12.414
ltibia 24.6258
lfoot -12.6737 6.63759
ltoes 0.339717
355
root 2.41011 16.2027 -1.15509 3.62458 -64.276 4.52734
lowerback -4.98055 -1.02262 -3.5201
upperback -5.02461 -1.3303 1.53582
thorax -2.28046 -0.574028 3.52165
lowerneck 8.48464 -15.3771 -5.44555
upperneck -2.58131 -21.0852 -0.35562
head -1.67646 -10.4542 1.47062
rclavicle 4.92489e-014 6.75868e-015
rhumerus -48.7109 -2.38296 -78.8164
rradius 37.852
rwrist 3.39121
rhand -14.9675 -44.9598
rfingers 7.12502
rthumb 11.196 -74.6411
lclavicle 4.92489e-014 6.75868e-015
lhumerus -62.5898 13.3661 78.3269
lradius 66.0771
lwrist -5.20179
lhand -27.092 -12.9471
lfingers 7.12502
lthumb -0.508934 17.032
rfemur -5.94598 9.29251 21.2536
rtibia 18.1926
rfoot -23.1968 -28.8469
rtoes 16.0081
lfemur -19.8064 -22.7412 -12.5646
ltibia 24.5925
lfoot -12.5616 6.91333
ltoes 0.294329
356
root 2.40479 16.2072 -1.14498 3.5301 -64.8545 4.66327
lowerback -4.97756 -1.1644 -3.52017
upperback -5.13031 -1.52377 1.60029
thorax -2.37398 -0.668077 3.58398
lowerneck 8.6047 -15.239 -5.84239
upperneck -2.62691 -20.9411 -0.163268
head -1.65413 -10.3836 1.58456
rclavicle -2.25621e-014 5.1684e-015
rhumerus -48.7269 -2.00336 -78.9985
rradius 37.8024
rwrist 3.25305
rhand -14.5439 -44.8282
rfingers 7.12502
rthumb 11.6047 -74.4868
lclavicle -2.25621e-014 5.1684e-015
lhumerus -62.6611 13.6837 78.1152
lradius 65.6472
lwrist -5.34753
lhand -27.0805 -12.7411
lfingers 7.12502
lthumb -0.497822 17.2381
rfemur -5.98844 9.56838 21.1156
rtibia 18.1175
rfoot -23.2311 -28.6455
rtoes 16.1281
lfemur -19.6222 -22.6697 -12.6778
ltibia 24.566
lfoot -12.5071 7.3097
ltoes 0.996585
357
root 2.40207 16.2117 -1.13183 3.77518 -65.4748 4.44015
lowerback -5.02382 -1.34484 -3.3686
upperback -5.19119 -1.76879 1.81437
thorax -2.38761 -0.792458 3.71253
lowerneck 8.67533 -15.0001 -6.44228
upperneck -2.7621 -20.6882 -0.0278559
head -1.64354 -10.2529 1.70832
rclavicle 5.76476e-015 -3.18055e-015
rhumerus -48.5764 -1.52886 -79.0247
rradius 37.6704
rwrist 3.44961
rhand -13.984 -44.6624
rfingers 7.12502
rthumb 12.1445 -74.2899
lclavicle 5.76476e-015 -3.18055e-015
lhumerus -62.8552 14.2945 77.9452
lradius 65.414
lwrist -5.35865
lhand -26.953 -12.763
lfingers 7.12502
lthumb -0.374702 17.2165
rfemur -6.08749 9.6541 21.116
rtibia 18.0607
rfoot -23.6339 -28.1521
rtoes 17.4176
lfemur -19.4514 -22.5223 -12.6473
ltibia 24.5451
lfoot -12.4493 7.78613
ltoes 0.86395
358
root 2.40358 16.2134 -1.12132 4.03553 -66.1223 4.28244
lowerback -5.19107 -1.37994 -3.25902
upperback -5.1567 -1.81376 1.95528
thorax -2.25306 -0.820212 3.7904
lowerneck 8.41729 -14.9523 -6.72815
upperneck -2.79116 -20.6272 0.151044
head -1.563 -10.2267 1.76977
rclavicle 3.57812e-015 2.38542e-015
rhumerus -48.309 -1.40847 -78.9596
rradius 37.5538
rwrist 3.57676
rhand -14.0579 -44.7632
rfingers 7.12502
rthumb 12.0733 -74.3949
lclavicle 3.57812e-015 2.38542e-015
lhumerus -62.7602 14.423 78.0574
lradius 65.3062
lwrist -5.31902
lhand -26.8735 -13.3623
lfingers 7.12502
lthumb -0.29787 16.6172
rfemur -6.30122 9.72063 21.0616
rtibia 18.0466
rfoot -23.1386 -27.7538
rtoes 17.0183
lfemur -19.4117 -22.3526 -12.6005
ltibia 24.5198
lfoot -12.3555 8.27873
ltoes 0.270643
359
root 2.40482 16.2137 -1.11312 4.08555 -66.6257 4.25098
lowerback -5.15539 -1.39141 -3.18243
upperback -5.19433 -1.8345 1.94575
thorax -2.31235 -0.83206 3.73827
lowerneck 8.57781 -14.9389 -6.57025
upperneck -2.96776 -20.6108 0.133947
head -1.66692 -10.2123 1.77295
rclavicle 1.33683e-014 -1.19271e-014
rhumerus -48.3326 -1.36766 -79.0788
rradius 37.5775
rwrist 3.44923
rhand -14.024 -45.0554
rfingers 7.12502
rthumb 12.106 -74.6852
lclavicle 1.33683e-014 -1.19271e-014
lhumerus -62.7635 14.2551 78.0528
lradius 65.2463
lwrist -5.38963
lhand -26.6924 -14.0246
lfingers 7.12502
lthumb -0.123044 15.9551
rfemur -6.4088 10.0147 21.0076
rtibia 18.1305
rfoot -22.6033 -27.714
rtoes 15.7996
lfemur -19.2948 -22.298 -12.6125
ltibia 24.4582
lfoot -12.3079 8.67208
ltoes 0.158938
360
root 2.40484 16.2151 -1.10433 3.63623 -66.9923 4.55174
lowerback -4.92829 -1.52547 -3.31878
upperback -5.19234 -2.0148 1.94264
thorax -2.4175 -0.915666 3.81197
lowerneck 8.67373 -14.8685 -6.16689
upperneck -3.13174 -20.5089 -0.238316
head -1.82255 -10.1468 1.63729
rclavicle 1.65985e-014 3.18055e-015
rhumerus -48.5184 -1.0835 -79.295
rradius 37.9322
rwrist 3.28719
rhand -13.8764 -45.335
rfingers 7.12502
rthumb 12.2483 -74.9564
lclavicle 1.65985e-014 3.18055e-015
lhumerus -62.7946 14.2301 77.9951
lradius 65.1786
lwrist -5.475
lhand -26.6919 -13.7453
lfingers 7.12502
lthumb -0.122519 16.2344
rfemur -6.30055 10.2933 20.8779
rtibia 18.2845
rfoot -22.7004 -27.6883
rtoes 15.587
lfemur -18.918 -22.2374 -12.8693
ltibia 24.3636
lfoot -12.2394 8.93733
ltoes -0.143871
361
root 2.40401 16.2168 -1.09753 3.01638 -67.2788 5.15299
lowerback -4.87037 -1.63395 -3.59844
upperback -5.09642 -2.14991 1.94269
thorax -2.32972 -0.977051 3.96462
lowerneck 7.86667 -14.9156 -6.07394
upperneck -2.58702 -20.4976 -0.361113
head -1.52787 -10.1619 1.47694
rclavicle -2.34069e-014 -2.3059e-014
rhumerus -48.4884 -0.935736 -79.3978
rradius 38.2979
rwrist 3.05985
rhand -14.4067 -45.2071
rfingers 7.12502
rthumb 11.737 -74.8582
lclavicle -2.34069e-014 -2.3059e-014
lhumerus -62.3823 14.1746 78.1263
lradius 64.8669
lwrist -5.56299
lhand -26.7286 -13.5341
lfingers 7.12502
lthumb -0.157914 16.4456
rfemur -6.32537 10.5051 20.6169
rtibia 18.4539
rfoot -22.7053 -27.6798
rtoes 15.3328
lfemur -18.6866 -22.1589 -13.1954
ltibia 24.2593
lfoot -12.1164 9.07416
ltoes -0.0034403
362
root 2.40113 16.215 -1.09175 2.87945 -67.5177 5.41664
lowerback -4.91552 -1.64263 -3.61811
upperback -5.09506 -2.16056 1.89596
thorax -2.30315 -0.98342 3.92533
lowerneck 6.9382 -15.1604 -5.71466
upperneck -2.11138 -20.7469 -0.996802
head -1.31482 -10.2938 1.14003
rclavicle -1.14798e-014 6.36111e-015
rhumerus -48.4239 -1.15893 -79.3745
rradius 38.3309
rwrist 2.92312
rhand -15.0208 -44.9791
rfingers 7.12502
rthumb 11.1447 -74.6631
lclavicle -1.14798e-014 6.36111e-015
lhumerus -62.0325 13.9292 78.2855
lradius 64.6929
lwrist -5.57586
lhand -26.5165 -13.7721
lfingers 7.12502
lthumb 0.0468473 16.2076
rfemur -6.53565 10.7968 20.4781
rtibia 18.6168
rfoot -22.7587 -27.75
rtoes 15.4969
lfemur -18.7075 -22.1333 -13.2679
ltibia 24.1552
lfoot -12.0306 9.19048
ltoes 0.468475
